<svg width="156" height="103" viewBox="0 0 156 103" fill="none" xmlns="http://www.w3.org/2000/svg">
<path d="M38.0727 103L34.6688 92.284L33.5342 91.9058V91.1494H38.7031V91.9058L37.0641 92.4101L39.3334 100.1H39.4595L42.6113 91.1494H44.2502L47.2759 100.1H47.402L49.9234 92.284L48.4105 91.7797V91.0233H52.697V91.7797L51.4363 92.158L47.402 102.874H46.0152L42.9895 93.923H42.8634L39.4595 102.874H38.0727V103Z" fill="#2D243A"/>
<path d="M55.0928 102.356L56.655 101.841V92.3111L55.0928 91.796V91.0233H59.8835V91.796L58.3213 92.3111V101.712L59.8835 102.227V103H55.0928V102.356Z" fill="#2D243A"/>
<path d="M64.6738 101.981L66.0968 101.471V92.2974L64.6738 91.7878V91.0233H68.1127L73.8046 99.3051H73.9232V92.2974L72.263 91.7878V91.0233H76.6506V91.7878L75.2276 92.2974V103H73.9232L67.5198 93.699V101.599L69.2985 102.108V102.873H64.6738V101.981Z" fill="#2D243A"/>
<path d="M85.4233 97.6487V101.981H89.0319L90.1518 99.9422L91.0228 100.07L90.6495 103H81.4414V102.236L83.3079 101.726V92.2974L81.4414 91.7878V91.0233H90.5251V93.8264H89.4051L88.783 92.0426H85.2989V96.2472L89.5296 96.1198V97.3939L85.4233 97.6487Z" fill="#2D243A"/>
<path d="M101.281 97.7762H99.8491V101.726L101.802 102.236V103H95.8135V102.236L97.7662 101.726V92.2974L95.8135 91.7878V91.0233H101.802C104.275 91.0233 105.968 92.17 105.968 94.336C105.968 95.865 105.187 96.8843 103.624 97.2665L106.358 101.599L107.79 102.108V102.873H104.536L101.281 97.7762ZM99.8491 92.2974V96.7568H100.5C102.323 96.7568 103.624 96.1198 103.624 94.5909C103.624 93.0619 102.713 92.2974 100.891 92.2974H99.8491Z" fill="#2D243A"/>
<path d="M110.585 102.108L112.581 101.599V98.1584L108.988 92.17L107.79 91.7878V91.0233H113.113V91.7878L111.383 92.2974L114.178 97.1391H114.311L116.972 92.4249L115.242 91.9152V91.1507H119.767V91.9152L118.702 92.2974L114.976 98.2858V101.726L116.972 102.236V103H110.585V102.108Z" fill="#2D243A"/>
<path d="M57.6004 52.6976H50.4815V63.1353H40.542V52.6976H33.423H31.1396V57.28L33.423 56.8982V74.8459L31.1396 74.5913V79.0465H33.423H40.542V68.3542H50.4815V79.0465H57.6004H59.8838V74.5913L57.6004 74.8459V56.8982L59.8838 57.28V52.6976H57.6004Z" fill="#2D243A"/>
<path d="M91.1969 52.6976H84.2721V71.6083C84.2721 73.1211 83.4882 73.8775 81.9203 73.8775H76.1715C74.6036 73.8775 73.8197 73.1211 73.8197 71.6083V52.6976H66.8949H64.6738V57.1101L66.8949 56.858V71.6083C66.8949 74.2558 67.5483 76.1468 68.7242 77.2815C69.9001 78.4161 71.8599 79.0465 74.6036 79.0465H83.4882C86.232 79.0465 88.1918 78.4161 89.3677 77.2815C90.5436 76.1468 91.1969 74.2558 91.1969 71.6083V56.858L93.418 57.1101V52.6976H91.1969Z" fill="#2D243A"/>
<path d="M131.988 52.6976H124.901L117.435 65.172L109.969 52.6976H102.882H100.604V57.28L102.882 56.8982V74.8459L100.604 74.5913V79.0465H102.882H109.589V64.4082L117.435 76.628L125.281 64.4082V79.0465H131.988H134.139V74.5913L131.988 74.8459V56.8982L134.139 57.28V52.6976H131.988Z" fill="#2D243A"/>
<path d="M155.697 57.28V52.6976H143.721V57.28L146.061 56.8982V74.8459L143.721 74.5913V79.0465H155.697V74.5913L153.357 74.8459V56.8982L155.697 57.28Z" fill="#2D243A"/>
<path d="M16.3682 63.2118H9.31525C7.71835 63.2118 6.91989 62.4518 6.91989 60.9316V60.1716C6.91989 58.6515 7.71835 57.8914 9.31525 57.8914H17.832L17.5659 60.0449H22.2235V57.8914V52.6976H7.85141C5.05684 52.6976 3.06072 53.331 1.86304 54.4711C0.665367 55.6112 0 57.5114 0 60.1716V61.3117C0 63.9719 0.665367 65.872 1.86304 67.0121C3.06072 68.1522 5.05684 68.7856 7.85141 68.7856H16.9005V71.9525C16.9005 72.4592 16.7674 72.966 16.3682 73.2193C15.969 73.5993 15.5698 73.7261 14.9044 73.7261C14.239 73.7261 8.64987 73.7261 4.65762 73.7261L4.92377 71.5725H0.266146V73.7261V79.0465H4.52454C4.52454 79.0465 15.969 79.0465 16.5013 79.0465C19.0297 79.0465 20.8928 78.5398 22.0904 77.3997C23.2881 76.2596 23.9535 74.4861 23.9535 72.0792V70.1791C23.9535 67.7722 23.2881 65.9987 22.0904 64.8586C20.8928 63.7186 19.0297 63.2118 16.3682 63.2118Z" fill="#2D243A"/>
<path d="M54.3314 17.615H54.7397V17.1728C54.7397 16.8411 55.148 16.5094 55.5563 16.5094C55.9646 16.5094 56.3729 16.8411 56.3729 17.1728V17.615H56.7812L58.2783 16.2883L59.6393 17.8361L63.5862 19.1627C63.314 17.9466 63.314 16.8411 63.5862 15.8461C63.8584 14.9617 64.2667 14.2983 64.675 13.7456L59.0949 11.9767L52.6982 13.7456V14.4089C52.6982 15.4039 53.1066 16.3989 53.7871 17.1728L54.3314 17.615Z" fill="#2D243A"/>
<path d="M95.6812 28.4828L98.7419 31.3573H97.2781C95.8143 31.3573 94.4835 32.1412 93.8182 33.3171L93.4189 33.9704L94.4835 35.9302H96.0804V35.4075C96.0804 35.0156 96.4797 34.6236 96.8789 34.6236C97.2781 34.6236 97.6774 35.0156 97.6774 35.4075V35.9302H98.875V35.4075C98.875 35.0156 99.2743 34.6236 99.6735 34.6236C100.073 34.6236 100.472 35.0156 100.472 35.4075V35.9302H103.266L105.396 27.8295L101.403 21.5581L95.6812 28.4828Z" fill="#2D243A"/>
<path d="M106.708 0.12697H104.002H102.919H100.212H99.6709C98.453 0.12697 97.3703 0.507833 96.423 1.01568C94.9344 2.03138 93.987 3.42797 93.987 4.95151V5.07848C93.987 7.3638 96.017 9.26821 98.453 9.26821H99.4003C100.889 9.26821 102.107 10.4109 102.107 11.8075V11.9344C102.107 13.331 100.889 14.4737 99.4003 14.4737H97.235H96.6937H91.1451C91.1451 14.6006 91.1451 14.8545 91.1451 14.9815C91.0098 16.2511 90.3331 17.3938 89.2505 18.2825C88.3032 19.0443 86.9499 19.4252 85.7319 19.5521C85.7319 19.5521 85.7319 19.5521 85.5966 19.5521C85.1906 19.5521 84.9199 19.1712 84.9199 18.7904C84.9199 18.4095 85.1906 18.0286 85.5966 18.0286C87.6265 18.0286 89.3858 16.632 89.6565 14.8546C89.9272 13.331 88.9798 11.8075 87.3559 11.0457C89.1152 10.7918 90.6038 9.52217 90.8745 7.87166C91.1451 5.84027 89.5211 4.06278 87.3559 3.68189L91.5511 1.26962C92.0924 0.888734 91.8218 0.12697 91.1451 0.12697H78.6947V0.25394C78.6947 0.25394 81.1306 5.84025 80.454 10.157C80.3187 11.2996 79.7773 12.5692 79.1007 13.9658C79.1007 13.9658 78.424 15.2354 77.2061 16.3781L76.6648 16.8859C76.6648 16.8859 76.6648 16.8859 76.5294 17.0129C76.3941 17.1399 76.2588 17.1399 75.9881 17.1399C75.5821 17.1399 75.1761 16.759 75.1761 16.3781C75.1761 16.1242 75.3115 15.9972 75.4468 15.8703L75.9881 15.3624C76.6648 14.7276 77.2061 13.9658 77.4768 13.585C77.4768 13.585 76.9354 12.1884 76.6648 11.0457C76.6648 10.9187 76.6648 10.9187 76.6648 10.7918C76.5294 9.90304 76.3941 8.76039 75.9881 7.23685C75.3115 3.93584 73.6875 3.30101 73.1462 3.17405L75.5821 1.14265C75.9881 0.761764 75.7174 0 75.1761 0H69.2216C67.327 0 66.6503 0.761788 65.9737 1.52356C65.5677 1.90445 65.1617 2.28532 64.6204 2.53924C62.4551 3.17405 61.9137 5.07849 62.3197 6.47507C62.5904 7.23684 62.8611 7.74467 63.1317 8.12556L63.2671 8.25253C63.9437 7.74468 65.1617 6.98293 65.9737 7.23685C65.9737 7.23685 65.9736 7.23683 69.0862 8.25253C68.8156 7.23683 67.7329 6.09416 67.1916 5.45935C66.6503 4.82454 66.515 4.69759 66.6503 4.3167C66.7856 3.80885 67.327 3.68189 68.8156 3.68189C69.6276 3.68189 70.3042 3.68189 70.3042 3.68189C70.5749 3.68189 70.8456 3.93581 70.8456 4.18973C70.8456 4.44365 70.5749 4.69761 70.3042 4.69761C69.6276 4.69761 68.8156 4.69758 68.2743 4.82454C69.0862 5.84024 70.5749 7.61774 70.4395 9.14128C70.4395 9.26824 70.3042 9.52215 70.1689 9.52215C70.0336 9.52215 69.8982 9.64912 69.8982 9.64912C69.7629 9.64912 69.7629 9.64912 69.6276 9.64912C69.0862 9.3952 68.2743 9.14126 67.4623 8.88734C67.4623 9.0143 67.4623 9.01432 67.5976 9.14128C67.8683 10.03 67.7329 11.1727 67.1916 12.3153C65.9737 14.4737 61.9137 16.8859 65.297 23.234C65.5677 23.8688 65.9737 24.3767 66.109 24.8846L66.9209 23.1071C67.0563 22.7262 67.5976 22.4723 68.0036 22.7262C68.4096 22.8532 68.6803 23.361 68.4096 23.7419L66.3796 28.5665L66.2443 28.8204L65.0263 31.4866H63.8084C62.3197 31.4866 60.9664 32.2483 60.2898 33.391L59.8838 34.0258L60.9664 35.9302H62.5904V35.4224C62.5904 35.0415 62.9964 34.6606 63.4024 34.6606C63.8084 34.6606 64.2143 35.0415 64.2143 35.4224V35.9302H65.4323V35.4224C65.4323 35.0415 65.8383 34.6606 66.2443 34.6606C66.6503 34.6606 67.0563 35.0415 67.0563 35.4224V35.9302H69.4923L75.8528 28.1856L80.9954 27.1699V25.2654C80.9954 24.8845 81.4013 24.5037 81.8073 24.5037C82.2133 24.5037 82.6193 24.8845 82.6193 25.2654V29.8361V31.3596H80.9954C79.5067 31.3596 78.1534 32.1214 77.4768 33.2641L77.0707 33.8989L78.1534 35.8033H79.7773V35.2954C79.7773 34.9145 80.1833 34.5337 80.5893 34.5337C80.9953 34.5337 81.4013 34.9145 81.4013 35.2954V35.8033H82.6193V35.2954C82.6193 34.9145 83.0253 34.5337 83.4313 34.5337C83.8373 34.5337 84.2433 34.9145 84.2433 35.2954V35.8033H86.6792L99.5356 20.5679C99.6709 18.9174 99.1296 17.2668 98.5883 16.1242H99.9416C102.378 16.1242 104.408 14.2197 104.408 11.9344V11.8075C104.408 9.52213 102.378 7.61772 99.9416 7.61772H98.9943C97.5057 7.61772 96.2877 6.47506 96.2877 5.07848V4.95151C96.2877 3.68189 97.235 2.79316 97.9117 2.41227C98.453 2.03138 99.2649 1.77746 100.077 1.77746H101.295C101.43 2.41227 101.566 3.04707 101.972 3.55492C102.242 3.93581 102.784 4.18973 103.325 4.18973C104.949 4.18973 106.708 2.15834 107.791 1.01568C107.52 0.634795 107.249 0.12697 106.708 0.12697Z" fill="#2D243A"/>
<path d="M58.1191 22.1025C57.4888 22.1025 56.9845 22.5108 56.7324 22.9191C56.4802 22.2386 56.102 21.8303 55.4716 21.6942C55.3456 21.6942 55.2195 21.5581 55.0935 21.5581C54.8413 21.5581 54.5892 21.5581 54.4631 21.6942C54.0849 21.9664 53.7066 22.3747 53.4545 22.9191C53.0763 22.3747 52.572 22.1025 52.0678 22.1025C51.0592 22.1025 50.3027 23.1913 50.3027 24.4162C50.3027 25.505 50.9331 26.4577 51.8156 26.7299C51.6895 27.0021 51.5634 27.4104 51.5634 27.8187C51.5634 29.0436 52.3199 30.1324 53.3285 30.1324C53.4545 30.1324 53.4545 30.1324 53.5806 30.1324C53.4545 30.4046 53.3285 30.8129 53.3285 31.2212C53.3285 32.4461 54.0849 33.5349 55.0935 33.5349C56.102 33.5349 56.8584 32.4461 56.8584 31.2212C56.8584 30.8129 56.7323 30.4046 56.6063 30.1324C56.7323 30.1324 56.7324 30.1324 56.8584 30.1324C57.867 30.1324 58.6234 29.0436 58.6234 27.8187C58.6234 27.4104 58.4974 27.0021 58.3713 26.7299C59.2538 26.5938 59.8841 25.6411 59.8841 24.4162C59.8841 23.1913 59.1277 22.1025 58.1191 22.1025Z" fill="#2D243A"/>
</svg>
